<svg width="29" height="29" viewBox="0 0 29 29" fill="none" xmlns="http://www.w3.org/2000/svg">
<path d="M14.5 0.000248436C10.6544 0.000248436 6.96631 1.52785 4.2469 4.24712C1.52762 6.96638 0 10.6547 0 14.5001C0 18.3455 1.52762 22.0337 4.2469 24.7531C6.96619 27.4724 10.6545 29 14.5 29C18.3455 29 22.0337 27.4724 24.7531 24.7531C27.4724 22.0339 29 18.3455 29 14.5001C29 11.9549 28.33 9.45441 27.0575 7.24988C25.7848 5.04572 23.9542 3.21517 21.7501 1.94247C19.5456 0.669966 17.0451 0 14.4998 0L14.5 0.000248436ZM15.9499 20.3006V20.3003C15.9499 20.8183 15.6737 21.297 15.2251 21.5561C14.7765 21.8151 14.2235 21.8151 13.7749 21.5561C13.3263 21.297 13.0501 20.8184 13.0501 20.3003V14.5004C13.0501 13.9824 13.3263 13.5037 13.7749 13.2447C14.2235 12.9856 14.7765 12.9856 15.2251 13.2447C15.6737 13.5037 15.9499 13.9824 15.9499 14.5004V20.3006ZM14.5 11.6003C14.1155 11.6003 13.7465 11.4476 13.4746 11.1757C13.2027 10.9038 13.0501 10.5349 13.0501 10.1504C13.0501 9.76581 13.2027 9.39687 13.4746 9.12499C13.7465 8.85311 14.1155 8.70043 14.5 8.70043C14.8845 8.70043 15.2535 8.85311 15.5254 9.12499C15.7972 9.39687 15.9499 9.76581 15.9499 10.1504C15.9499 10.5349 15.7972 10.9038 15.5254 11.1757C15.2535 11.4476 14.8845 11.6003 14.5 11.6003Z" fill="#2B2C37"/>
</svg>
