<svg width="29" height="29" viewBox="0 0 29 29" fill="none" xmlns="http://www.w3.org/2000/svg">
<path d="M14.5 0.000248436C10.6544 0.000248436 6.96631 1.52785 4.2469 4.24712C1.52762 6.96638 0 10.6547 0 14.5001C0 18.3455 1.52762 22.0337 4.2469 24.7531C6.96619 27.4724 10.6545 29 14.5 29C18.3455 29 22.0337 27.4724 24.7531 24.7531C27.4724 22.0339 29 18.3455 29 14.5001C29 11.9549 28.33 9.45441 27.0575 7.24988C25.7848 5.04572 23.9542 3.21517 21.7501 1.94247C19.5456 0.669966 17.0451 0 14.4998 0L14.5 0.000248436ZM18.6037 16.5446V16.5444C18.878 16.8168 19.0324 17.1874 19.0324 17.5739C19.0324 17.9606 18.878 18.3313 18.6037 18.6036C18.3298 18.875 17.9594 19.0262 17.5739 19.024C17.1887 19.0262 16.8183 18.875 16.5445 18.6036L14.5001 16.5443L12.4557 18.6033V18.6036C12.1818 18.875 11.8114 19.0262 11.4262 19.024C11.0407 19.0262 10.6703 18.875 10.3965 18.6036C10.1222 18.3312 9.96777 17.9605 9.96777 17.5739C9.96777 17.1874 10.1222 16.8167 10.3965 16.5444L12.4557 14.5L10.3965 12.4556C10.0287 12.0876 9.88523 11.5516 10.0197 11.0491C10.1544 10.5466 10.5467 10.1544 11.0492 10.0197C11.5517 9.88518 12.0877 10.0286 12.4557 10.3964L14.5001 12.4556L16.5445 10.3967V10.3964C16.9125 10.0286 17.4485 9.88518 17.951 10.0197C18.4535 10.1544 18.8457 10.5467 18.9805 11.0491C19.115 11.5516 18.9715 12.0876 18.6037 12.4556L16.5445 14.5L18.6037 16.5446Z" fill="#EA5555"/>
</svg>
