<svg width="29" height="29" viewBox="0 0 29 29" fill="none" xmlns="http://www.w3.org/2000/svg">
<path d="M14.5 0.000248436C10.6544 0.000248436 6.96631 1.52785 4.2469 4.24712C1.52762 6.96638 0 10.6547 0 14.5001C0 18.3455 1.52762 22.0337 4.2469 24.7531C6.96619 27.4724 10.6545 29 14.5 29C18.3455 29 22.0337 27.4724 24.7531 24.7531C27.4724 22.0339 29 18.3455 29 14.5001C29 11.9549 28.33 9.45441 27.0575 7.24988C25.7848 5.04572 23.9542 3.21517 21.7501 1.94247C19.5456 0.669966 17.0451 0 14.4998 0L14.5 0.000248436ZM19.8795 12.6296L14.0795 18.4296C13.8072 18.7041 13.4365 18.8585 13.0501 18.8585C12.6634 18.8585 12.2927 18.7041 12.0206 18.4296L9.12046 15.5295C8.7527 15.1617 8.60899 14.6255 8.74372 14.1232C8.8782 13.6207 9.27073 13.2282 9.77319 13.0938C10.2754 12.959 10.8117 13.1027 11.1794 13.4705L13.0501 15.3554L17.8206 10.5704C18.1884 10.2026 18.7246 10.0589 19.2269 10.1937C19.7294 10.3284 20.1219 10.7207 20.2563 11.2231C20.3911 11.7256 20.2474 12.2616 19.8796 12.6294L19.8795 12.6296Z" fill="#635FC7"/>
</svg>
